<svg version="1.1" id="Layer_1" xmlns="http://www.w3.org/2000/svg" xmlns:xlink="http://www.w3.org/1999/xlink" x="0px" y="0px"
	 width="25px" height="25px" viewBox="0 0 512 512" enable-background="new 0 0 512 512" xml:space="preserve">
<path fill="#165A3C" opacity="1.000000" stroke="none" 
	d="
M1.000000,475.000000 
	C1.000000,357.311890 1.000000,239.623810 1.468657,121.467850 
	C35.064922,121.000000 68.193024,121.083931 101.319473,120.888260 
	C105.232140,120.865150 109.521309,120.062653 112.961349,118.302795 
	C119.622520,114.895073 120.966515,108.232178 120.976944,101.381645 
	C121.027855,67.921165 121.000000,34.460560 121.000000,1.000000 
	C208.354767,1.000000 295.709534,1.000000 383.623108,1.345623 
	C390.345917,4.610234 393.132172,9.193254 393.100708,16.291592 
	C392.902130,61.111286 393.000000,105.932297 393.000000,150.752869 
	C393.000000,190.741486 392.972290,230.730164 393.055328,270.718597 
	C393.061615,273.749573 392.558777,275.632629 389.113983,276.033722 
	C373.447723,277.857880 358.880402,282.917603 344.983124,290.414551 
	C327.280823,299.964142 312.540253,312.750031 300.629578,328.869629 
	C298.491058,331.763885 296.181000,333.130737 292.245605,333.119446 
	C232.429779,332.947571 172.613312,332.982635 112.797058,333.043427 
	C109.227707,333.047058 105.459641,333.058411 102.127968,334.132751 
	C92.726746,337.164307 89.089958,347.124084 93.774757,355.229126 
	C97.617798,361.877838 104.190010,362.945831 110.931778,362.955505 
	C166.082642,363.034454 221.233643,363.000000 276.384613,363.000000 
	C278.107880,363.000000 279.831177,363.000000 281.146149,363.000000 
	C278.906647,373.176239 276.739227,383.024841 274.543945,393.000000 
	C272.555023,393.000000 270.732178,393.000000 268.909332,393.000000 
	C218.590317,393.000000 168.271255,392.972473 117.952354,393.043640 
	C113.049889,393.050568 108.121956,393.451477 103.251938,394.046661 
	C94.004555,395.176788 88.641983,407.307831 93.607964,415.156250 
	C97.688362,421.605042 104.010109,422.946594 110.775078,422.956665 
	C163.426651,423.035065 216.078369,423.000000 268.730042,423.000000 
	C270.700745,423.000000 272.671448,423.000000 274.763641,423.000000 
	C277.318848,444.664185 284.563538,464.352051 296.727203,483.000000 
	C294.282501,483.000000 292.827240,483.000000 291.371979,483.000000 
	C199.064926,483.000000 106.757759,483.043121 14.451201,482.826813 
	C11.103961,482.818970 7.655628,480.465027 4.467328,478.797394 
	C3.039958,478.050842 2.139553,476.296814 1.000000,475.000000 
M303.000000,271.507324 
	C302.665344,262.924683 302.989990,254.254150 301.860260,245.777481 
	C299.427490,227.524109 293.498444,210.336838 282.001373,195.732391 
	C275.964294,188.063644 269.032013,180.950562 261.704987,174.493164 
	C255.770401,169.262939 248.641785,165.387512 241.737793,160.704269 
	C252.293610,148.433853 257.931366,134.510193 257.112701,117.972977 
	C256.291077,101.376938 249.498672,87.696579 237.358459,77.103188 
	C214.496826,57.154465 182.255920,55.709465 157.020950,76.646851 
	C146.240677,85.591225 139.427017,97.588943 137.389297,111.452438 
	C134.653732,130.063828 139.542450,146.901215 152.836853,161.229568 
	C137.870178,168.813248 125.548355,178.338135 115.463493,190.902023 
	C102.388725,207.190796 94.490791,225.655807 92.204033,246.189240 
	C90.779305,258.982239 91.107773,271.995453 91.097290,284.910217 
	C91.092194,291.184174 92.880890,297.365570 99.061264,300.343567 
	C102.565865,302.032288 106.815819,302.868073 110.736771,302.889954 
	C144.890488,303.080627 179.045715,303.000000 213.200500,303.000000 
	C236.525711,303.000000 259.851349,303.082153 283.175934,302.959381 
	C292.439362,302.910614 301.262207,300.093567 302.242706,288.289032 
	C302.678528,283.041962 302.758514,277.765350 303.000000,271.507324 
z"/>
<path fill="#FFFFFF" opacity="1.000000" stroke="none" 
	d="
M1.000000,475.468658 
	C2.139553,476.296814 3.039958,478.050842 4.467328,478.797394 
	C7.655628,480.465027 11.103961,482.818970 14.451201,482.826813 
	C106.757759,483.043121 199.064926,483.000000 291.371979,483.000000 
	C292.827240,483.000000 294.282501,483.000000 296.727203,483.000000 
	C284.563538,464.352051 277.318848,444.664185 274.763641,423.000000 
	C272.671448,423.000000 270.700745,423.000000 268.730042,423.000000 
	C216.078369,423.000000 163.426651,423.035065 110.775078,422.956665 
	C104.010109,422.946594 97.688362,421.605042 93.607964,415.156250 
	C88.641983,407.307831 94.004555,395.176788 103.251938,394.046661 
	C108.121956,393.451477 113.049889,393.050568 117.952354,393.043640 
	C168.271255,392.972473 218.590317,393.000000 268.909332,393.000000 
	C270.732178,393.000000 272.555023,393.000000 274.543945,393.000000 
	C276.739227,383.024841 278.906647,373.176239 281.146149,363.000000 
	C279.831177,363.000000 278.107880,363.000000 276.384613,363.000000 
	C221.233643,363.000000 166.082642,363.034454 110.931778,362.955505 
	C104.190010,362.945831 97.617798,361.877838 93.774757,355.229126 
	C89.089958,347.124084 92.726746,337.164307 102.127968,334.132751 
	C105.459641,333.058411 109.227707,333.047058 112.797058,333.043427 
	C172.613312,332.982635 232.429779,332.947571 292.245605,333.119446 
	C296.181000,333.130737 298.491058,331.763885 300.629578,328.869629 
	C312.540253,312.750031 327.280823,299.964142 344.983124,290.414551 
	C358.880402,282.917603 373.447723,277.857880 389.113983,276.033722 
	C392.558777,275.632629 393.061615,273.749573 393.055328,270.718597 
	C392.972290,230.730164 393.000000,190.741486 393.000000,150.752869 
	C393.000000,105.932297 392.902130,61.111286 393.100708,16.291592 
	C393.132172,9.193254 390.345917,4.610234 384.090942,1.345623 
	C426.963959,1.000000 469.927887,1.000000 513.000000,1.000000 
	C513.000000,131.687546 513.000000,262.375122 512.605957,393.384033 
	C511.539825,383.418671 508.295135,373.834106 504.103394,364.537994 
	C497.602386,350.120361 488.472107,337.770416 476.224457,327.554047 
	C467.305450,320.114258 457.614166,314.346893 446.934845,309.924408 
	C432.278442,303.854980 417.028473,302.448517 401.374847,302.945618 
	C388.559906,303.352570 376.426392,306.475555 364.870178,311.685059 
	C350.344269,318.233307 337.756012,327.386200 327.485382,339.841644 
	C320.101410,348.796356 314.329193,358.469269 309.905518,369.153473 
	C303.831390,383.823914 302.450897,399.071075 302.953247,414.719086 
	C303.364410,427.527588 306.502228,439.646179 311.729706,451.208893 
	C318.299316,465.740295 327.411926,478.339661 339.912476,488.576996 
	C349.650269,496.551697 359.994141,503.189270 371.996643,506.968933 
	C379.245331,509.251587 386.659943,511.007416 394.000000,513.000000 
	C263.000000,513.000000 131.999985,513.000000 1.000000,513.000000 
	C1.000000,500.578888 1.000000,488.258087 1.000000,475.468658 
z"/>
<path fill="#165A3C" opacity="1.000000" stroke="none" 
	d="
M394.468658,513.000000 
	C386.659943,511.007416 379.245331,509.251587 371.996643,506.968933 
	C359.994141,503.189270 349.650269,496.551697 339.912476,488.576996 
	C327.411926,478.339661 318.299316,465.740295 311.729706,451.208893 
	C306.502228,439.646179 303.364410,427.527588 302.953247,414.719086 
	C302.450897,399.071075 303.831390,383.823914 309.905518,369.153473 
	C314.329193,358.469269 320.101410,348.796356 327.485382,339.841644 
	C337.756012,327.386200 350.344269,318.233307 364.870178,311.685059 
	C376.426392,306.475555 388.559906,303.352570 401.374847,302.945618 
	C417.028473,302.448517 432.278442,303.854980 446.934845,309.924408 
	C457.614166,314.346893 467.305450,320.114258 476.224457,327.554047 
	C488.472107,337.770416 497.602386,350.120361 504.103394,364.537994 
	C508.295135,373.834106 511.539825,383.418671 512.605957,393.852692 
	C513.000000,403.020905 513.000000,412.041779 512.605957,421.678650 
	C511.542511,432.558380 508.321991,442.131989 504.143738,451.407654 
	C497.592834,465.950562 488.360413,478.399567 475.982758,488.662354 
	C466.437531,496.576569 456.168488,503.038330 444.439484,506.920380 
	C437.093628,509.351685 429.488678,511.000244 422.000000,513.000000 
	C412.979095,513.000000 403.958221,513.000000 394.468658,513.000000 
M436.500000,415.000000 
	C444.980591,406.514252 453.425903,397.992889 461.952179,389.553284 
	C469.835510,381.750031 468.644165,370.803345 460.025635,365.535889 
	C455.870575,362.996399 447.714417,362.556030 440.982574,369.415375 
	C426.160736,384.517914 411.108978,399.394867 396.138397,414.351196 
	C395.121918,415.366730 393.999878,416.276611 392.676178,417.459808 
	C386.477142,411.168427 380.504822,405.136780 374.565918,399.072418 
	C366.801147,391.143585 355.814331,392.351685 350.552795,400.955200 
	C347.992798,405.141266 347.545654,413.216675 354.075958,419.612885 
	C363.122009,428.473297 371.980469,437.524872 380.956635,446.457031 
	C388.895416,454.356995 397.193481,454.276367 405.244507,446.248138 
	C415.509613,436.012085 425.749329,425.750549 436.500000,415.000000 
z"/>
<path fill="#FFFFFF" opacity="1.000000" stroke="none" 
	d="
M120.531342,1.000000 
	C121.000000,34.460560 121.027855,67.921165 120.976944,101.381645 
	C120.966515,108.232178 119.622520,114.895073 112.961349,118.302795 
	C109.521309,120.062653 105.232140,120.865150 101.319473,120.888260 
	C68.193024,121.083931 35.064922,121.000000 1.468657,121.000000 
	C1.000000,81.073029 1.000000,41.146065 1.000000,1.000000 
	C40.687294,1.000000 80.374985,1.000000 120.531342,1.000000 
M91.000000,67.499969 
	C91.000000,48.473579 91.000000,29.447187 91.000000,12.557662 
	C65.053284,38.496185 38.329155,65.211868 12.825835,90.707130 
	C37.343132,90.707130 64.069565,90.707130 91.000000,90.707130 
	C91.000000,83.110344 91.000000,75.805153 91.000000,67.499969 
z"/>
<path fill="#FFFFFF" opacity="1.000000" stroke="none" 
	d="
M422.468658,513.000000 
	C429.488678,511.000244 437.093628,509.351685 444.439484,506.920380 
	C456.168488,503.038330 466.437531,496.576569 475.982758,488.662354 
	C488.360413,478.399567 497.592834,465.950562 504.143738,451.407654 
	C508.321991,442.131989 511.542511,432.558380 512.605957,422.147308 
	C513.000000,452.260254 513.000000,482.520508 513.000000,513.000000 
	C482.979462,513.000000 452.958374,513.000000 422.468658,513.000000 
z"/>
<path fill="#FFFFFF" opacity="1.000000" stroke="none" 
	d="
M303.000000,272.004730 
	C302.758514,277.765350 302.678528,283.041962 302.242706,288.289032 
	C301.262207,300.093567 292.439362,302.910614 283.175934,302.959381 
	C259.851349,303.082153 236.525711,303.000000 213.200500,303.000000 
	C179.045715,303.000000 144.890488,303.080627 110.736771,302.889954 
	C106.815819,302.868073 102.565865,302.032288 99.061264,300.343567 
	C92.880890,297.365570 91.092194,291.184174 91.097290,284.910217 
	C91.107773,271.995453 90.779305,258.982239 92.204033,246.189240 
	C94.490791,225.655807 102.388725,207.190796 115.463493,190.902023 
	C125.548355,178.338135 137.870178,168.813248 152.836853,161.229568 
	C139.542450,146.901215 134.653732,130.063828 137.389297,111.452438 
	C139.427017,97.588943 146.240677,85.591225 157.020950,76.646851 
	C182.255920,55.709465 214.496826,57.154465 237.358459,77.103188 
	C249.498672,87.696579 256.291077,101.376938 257.112701,117.972977 
	C257.931366,134.510193 252.293610,148.433853 241.737793,160.704269 
	C248.641785,165.387512 255.770401,169.262939 261.704987,174.493164 
	C269.032013,180.950562 275.964294,188.063644 282.001373,195.732391 
	C293.498444,210.336838 299.427490,227.524109 301.860260,245.777481 
	C302.989990,254.254150 302.665344,262.924683 303.000000,272.004730 
M211.500000,273.000000 
	C231.927505,273.000000 252.354996,273.000000 272.587921,273.000000 
	C276.112427,237.691788 265.560455,209.085373 234.393448,191.059174 
	C204.411133,173.718216 174.725021,177.231476 148.438385,198.586227 
	C125.288055,217.393082 117.671165,243.388214 121.627884,273.000000 
	C151.219360,273.000000 180.859680,273.000000 211.500000,273.000000 
M185.582916,92.908455 
	C184.541641,93.332939 183.479584,93.712975 182.462189,94.188553 
	C166.123047,101.826286 161.114258,122.973648 170.827713,137.612488 
	C178.869339,149.731781 197.699554,156.083710 213.546021,146.799561 
	C228.520279,138.026413 232.390961,119.324921 224.054733,105.759346 
	C215.914124,92.512093 202.687241,88.115387 185.582916,92.908455 
z"/>
<path fill="#FFFFFF" opacity="1.000000" stroke="none" 
	d="
M436.250000,415.250000 
	C425.749329,425.750549 415.509613,436.012085 405.244507,446.248138 
	C397.193481,454.276367 388.895416,454.356995 380.956635,446.457031 
	C371.980469,437.524872 363.122009,428.473297 354.075958,419.612885 
	C347.545654,413.216675 347.992798,405.141266 350.552795,400.955200 
	C355.814331,392.351685 366.801147,391.143585 374.565918,399.072418 
	C380.504822,405.136780 386.477142,411.168427 392.676178,417.459808 
	C393.999878,416.276611 395.121918,415.366730 396.138397,414.351196 
	C411.108978,399.394867 426.160736,384.517914 440.982574,369.415375 
	C447.714417,362.556030 455.870575,362.996399 460.025635,365.535889 
	C468.644165,370.803345 469.835510,381.750031 461.952179,389.553284 
	C453.425903,397.992889 444.980591,406.514252 436.250000,415.250000 
z"/>
<path fill="#000000" opacity="1.000000" stroke="none" 
	d="
M91.000000,67.999962 
	C91.000000,75.805153 91.000000,83.110344 91.000000,90.707130 
	C64.069565,90.707130 37.343132,90.707130 12.825835,90.707130 
	C38.329155,65.211868 65.053284,38.496185 91.000000,12.557662 
	C91.000000,29.447187 91.000000,48.473579 91.000000,67.999962 
z"/>
<path fill="#000000" opacity="1.000000" stroke="none" 
	d="
M211.000000,273.000000 
	C180.859680,273.000000 151.219360,273.000000 121.627884,273.000000 
	C117.671165,243.388214 125.288055,217.393082 148.438385,198.586227 
	C174.725021,177.231476 204.411133,173.718216 234.393448,191.059174 
	C265.560455,209.085373 276.112427,237.691788 272.587921,273.000000 
	C252.354996,273.000000 231.927505,273.000000 211.000000,273.000000 
z"/>
<path fill="#000000" opacity="1.000000" stroke="none" 
	d="
M185.869827,92.612267 
	C202.687241,88.115387 215.914124,92.512093 224.054733,105.759346 
	C232.390961,119.324921 228.520279,138.026413 213.546021,146.799561 
	C197.699554,156.083710 178.869339,149.731781 170.827713,137.612488 
	C161.114258,122.973648 166.123047,101.826286 182.462189,94.188553 
	C183.479584,93.712975 184.541641,93.332939 185.869827,92.612267 
z"/>
</svg>