<svg version="1.1" id="Layer_1" xmlns="http://www.w3.org/2000/svg" xmlns:xlink="http://www.w3.org/1999/xlink" x="0px" y="0px"
	 width="10px"  viewBox="0 0 512 512" enable-background="new 0 0 512 512" xml:space="preserve">
<path fill="#000000" opacity="1.000000" stroke="none" 
	d="
M243.000000,513.000000 
	C162.019638,513.000000 81.539276,513.000000 1.029458,513.000000 
	C1.029458,342.394623 1.029458,171.789215 1.029458,1.091913 
	C171.563721,1.091913 342.127502,1.091913 512.845642,1.091913 
	C512.845642,171.666565 512.845642,342.333252 512.845642,513.000000 
	C423.122528,513.000000 333.311249,513.000000 243.000000,513.000000 
M506.961884,173.352951 
	C506.677460,172.779419 506.517548,172.083298 506.090820,171.649902 
	C481.823700,147.005356 457.538879,122.378212 433.224487,97.780334 
	C432.529083,97.076775 431.496063,96.706909 429.916077,95.758759 
	C429.916077,122.053497 429.916077,147.487793 428.991272,172.987076 
	C384.495728,172.991379 340.000214,172.997986 295.504669,172.999466 
	C231.010773,173.001617 166.516815,172.973572 102.023193,173.105911 
	C99.674034,173.110733 96.540443,173.994644 95.124809,175.635574 
	C90.435562,181.071121 86.334282,187.017883 82.064552,192.810623 
	C67.524612,212.537003 53.000267,232.274902 38.487358,252.021164 
	C28.423794,265.713623 18.332113,279.386475 8.439295,293.201508 
	C7.563966,294.423859 7.268603,297.214478 8.053947,298.299744 
	C19.359465,313.923309 30.918690,329.362915 42.372967,344.879211 
	C58.966080,367.356689 75.537079,389.850616 92.082481,412.363220 
	C94.780846,416.034790 97.542870,418.182709 102.835419,418.173889 
	C235.322510,417.952637 367.810059,418.000092 500.297516,418.000092 
	C502.405579,418.000092 504.513641,418.000122 506.999817,418.000122 
	C506.999817,415.466644 506.999847,413.497742 506.999847,411.528839 
	C506.999817,344.368530 507.006104,277.208191 506.993988,210.047882 
	C506.991821,198.051163 506.913666,186.054428 506.961884,173.352951 
z"/>
<path fill="#000F3E" opacity="1.000000" stroke="none" 
	d="
M506.870605,174.057709 
	C506.913666,186.054428 506.991821,198.051163 506.993988,210.047882 
	C507.006104,277.208191 506.999817,344.368530 506.999847,411.528839 
	C506.999847,413.497742 506.999817,415.466644 506.999817,418.000122 
	C504.513641,418.000122 502.405579,418.000092 500.297516,418.000092 
	C367.810059,418.000092 235.322510,417.952637 102.835419,418.173889 
	C97.542870,418.182709 94.780846,416.034790 92.082481,412.363220 
	C75.537079,389.850616 58.966080,367.356689 42.372967,344.879211 
	C30.918690,329.362915 19.359465,313.923309 8.053947,298.299744 
	C7.268603,297.214478 7.563966,294.423859 8.439295,293.201508 
	C18.332113,279.386475 28.423794,265.713623 38.487358,252.021164 
	C53.000267,232.274902 67.524612,212.537003 82.064552,192.810623 
	C86.334282,187.017883 90.435562,181.071121 95.124809,175.635574 
	C96.540443,173.994644 99.674034,173.110733 102.023193,173.105911 
	C166.516815,172.973572 231.010773,173.001617 295.504669,172.999466 
	C340.000214,172.997986 384.495728,172.991379 429.826538,173.160309 
	C432.790527,173.554443 434.918701,173.961578 437.048035,173.967621 
	C460.322113,174.033752 483.596375,174.037216 506.870605,174.057709 
M342.231934,273.688354 
	C339.011902,285.723450 335.791870,297.758545 332.571838,309.793640 
	C329.942963,303.042786 328.505493,296.431030 326.960968,289.844391 
	C324.570465,279.650116 322.226654,269.442139 319.617554,259.303131 
	C318.513275,255.011871 315.166260,253.634888 311.045319,254.623474 
	C306.895172,255.619064 305.039551,258.528503 305.287445,262.760162 
	C305.335846,263.586273 305.507111,264.414429 305.705200,265.221130 
	C310.899323,286.372894 316.008942,307.546204 321.367950,328.656189 
	C322.906311,334.715942 326.023041,337.058350 330.988983,337.111053 
	C336.265472,337.167053 339.189819,334.877899 341.053650,328.575256 
	C343.834686,319.170990 346.378418,309.696350 349.004639,300.246521 
	C351.131653,292.592926 353.231445,284.931793 355.730743,275.869110 
	C356.530304,278.291443 356.869019,279.187897 357.123444,280.107697 
	C361.732513,296.769104 366.268372,313.451172 370.972748,330.085602 
	C372.298065,334.771790 375.613098,337.178345 380.632538,337.133820 
	C385.543182,337.090240 388.388306,334.336060 389.743744,330.016144 
	C391.185242,325.421906 392.252502,320.707672 393.415314,316.028992 
	C397.546082,299.408722 401.737762,282.802765 405.715851,266.145874 
	C407.276855,259.609833 405.288055,255.754150 400.392242,254.561676 
	C395.620270,253.399368 392.451111,255.836899 390.874268,262.244843 
	C389.126221,269.348236 387.595215,276.505127 385.972565,283.639374 
	C383.952576,292.520569 381.935577,301.402435 379.588745,311.729767 
	C378.759155,308.921051 378.365204,307.664856 378.016907,306.396118 
	C373.968170,291.647430 369.975403,276.883118 365.854523,262.154694 
	C364.508270,257.343109 361.285187,254.485886 356.132690,254.268799 
	C351.181793,254.060196 347.593994,256.637268 345.746796,261.926422 
	C344.488525,265.529205 343.570679,269.250916 342.231934,273.688354 
M171.086929,309.499939 
	C171.086929,300.586334 171.086929,291.672729 171.086929,281.275574 
	C172.949036,283.918091 173.989975,285.309326 174.941696,286.759155 
	C184.531677,301.367981 194.024460,316.041595 203.726990,330.575165 
	C207.646530,336.446289 212.180328,338.422607 217.172180,336.756348 
	C223.031845,334.800415 222.999557,329.729889 223.001541,324.802795 
	C223.009537,304.976715 223.036621,285.150513 222.961304,265.324707 
	C222.952621,263.038666 223.061417,260.208862 221.837524,258.609039 
	C220.328369,256.636322 217.500992,254.653412 215.203918,254.606598 
	C213.162872,254.564987 210.479324,256.766663 209.173080,258.712433 
	C208.014587,260.438049 208.099426,263.171509 208.084274,265.463013 
	C207.996140,278.790894 208.049316,292.119659 208.026779,305.448090 
	C208.024445,306.818207 207.837341,308.187988 207.669769,310.452667 
	C206.077347,308.130585 205.032242,306.656433 204.037872,305.148834 
	C194.048950,290.004242 184.076828,274.848602 174.079590,259.709503 
	C171.493942,255.794037 168.155289,253.394257 163.161850,254.715591 
	C157.973053,256.088623 156.031265,259.865051 156.019852,264.825165 
	C155.971161,285.983856 155.940582,307.142883 156.027344,328.301300 
	C156.050568,333.962036 158.866852,337.052338 163.429855,337.094482 
	C168.192581,337.138489 170.933441,333.969208 171.046326,327.992859 
	C171.156433,322.163666 171.080948,316.330963 171.086929,309.499939 
M299.122070,333.707214 
	C302.515839,327.564545 300.179901,323.123474 293.262177,323.007446 
	C283.934235,322.851013 274.601837,322.962921 265.271332,322.960327 
	C262.020813,322.959412 258.770294,322.960175 255.587250,322.960175 
	C255.587250,314.927002 255.587250,307.679993 255.587250,300.081726 
	C257.571869,300.081726 259.213104,300.082001 260.854309,300.081696 
	C270.018188,300.079926 279.182465,300.127563 288.345825,300.057617 
	C293.817505,300.015839 296.262207,298.017426 296.223419,293.905426 
	C296.185181,289.849670 293.771637,288.032013 288.163483,287.931946 
	C284.998749,287.875488 281.832275,287.918701 278.666565,287.918457 
	C271.046234,287.917938 263.425903,287.918304 255.681580,287.918304 
	C255.681580,281.058716 255.681580,274.706757 255.681580,268.127014 
	C267.775726,268.127014 279.431946,268.160126 291.087860,268.112854 
	C296.821716,268.089600 299.506561,266.002289 299.438446,261.845032 
	C299.373199,257.858276 296.870239,255.823105 291.377106,255.790131 
	C277.382019,255.706100 263.385437,255.684921 249.390732,255.797913 
	C241.554932,255.861160 239.078232,258.506622 239.060699,266.510345 
	C239.018356,285.837738 239.019226,305.165344 239.057999,324.492737 
	C239.075531,333.227722 241.677460,335.834198 250.387161,335.864624 
	C264.049530,335.912323 277.713074,335.956299 291.373901,335.804077 
	C293.762878,335.777466 296.141052,334.779419 299.122070,333.707214 
z"/>
<path fill="#A61C1C" opacity="1.000000" stroke="none" 
	d="
M506.916260,173.705322 
	C483.596375,174.037216 460.322113,174.033752 437.048035,173.967621 
	C434.918701,173.961578 432.790527,173.554443 430.288940,173.127808 
	C429.916077,147.487793 429.916077,122.053497 429.916077,95.758759 
	C431.496063,96.706909 432.529083,97.076775 433.224487,97.780334 
	C457.538879,122.378212 481.823700,147.005356 506.090820,171.649902 
	C506.517548,172.083298 506.677460,172.779419 506.916260,173.705322 
z"/>
<path fill="#FFFBFC" opacity="1.000000" stroke="none" 
	d="
M342.366272,273.303894 
	C343.570679,269.250916 344.488525,265.529205 345.746796,261.926422 
	C347.593994,256.637268 351.181793,254.060196 356.132690,254.268799 
	C361.285187,254.485886 364.508270,257.343109 365.854523,262.154694 
	C369.975403,276.883118 373.968170,291.647430 378.016907,306.396118 
	C378.365204,307.664856 378.759155,308.921051 379.588745,311.729767 
	C381.935577,301.402435 383.952576,292.520569 385.972565,283.639374 
	C387.595215,276.505127 389.126221,269.348236 390.874268,262.244843 
	C392.451111,255.836899 395.620270,253.399368 400.392242,254.561676 
	C405.288055,255.754150 407.276855,259.609833 405.715851,266.145874 
	C401.737762,282.802765 397.546082,299.408722 393.415314,316.028992 
	C392.252502,320.707672 391.185242,325.421906 389.743744,330.016144 
	C388.388306,334.336060 385.543182,337.090240 380.632538,337.133820 
	C375.613098,337.178345 372.298065,334.771790 370.972748,330.085602 
	C366.268372,313.451172 361.732513,296.769104 357.123444,280.107697 
	C356.869019,279.187897 356.530304,278.291443 355.730743,275.869110 
	C353.231445,284.931793 351.131653,292.592926 349.004639,300.246521 
	C346.378418,309.696350 343.834686,319.170990 341.053650,328.575256 
	C339.189819,334.877899 336.265472,337.167053 330.988983,337.111053 
	C326.023041,337.058350 322.906311,334.715942 321.367950,328.656189 
	C316.008942,307.546204 310.899323,286.372894 305.705200,265.221130 
	C305.507111,264.414429 305.335846,263.586273 305.287445,262.760162 
	C305.039551,258.528503 306.895172,255.619064 311.045319,254.623474 
	C315.166260,253.634888 318.513275,255.011871 319.617554,259.303131 
	C322.226654,269.442139 324.570465,279.650116 326.960968,289.844391 
	C328.505493,296.431030 329.942963,303.042786 332.571838,309.793640 
	C335.791870,297.758545 339.011902,285.723450 342.366272,273.303894 
z"/>
<path fill="#FFFDFD" opacity="1.000000" stroke="none" 
	d="
M171.086929,309.999878 
	C171.080948,316.330963 171.156433,322.163666 171.046326,327.992859 
	C170.933441,333.969208 168.192581,337.138489 163.429855,337.094482 
	C158.866852,337.052338 156.050568,333.962036 156.027344,328.301300 
	C155.940582,307.142883 155.971161,285.983856 156.019852,264.825165 
	C156.031265,259.865051 157.973053,256.088623 163.161850,254.715591 
	C168.155289,253.394257 171.493942,255.794037 174.079590,259.709503 
	C184.076828,274.848602 194.048950,290.004242 204.037872,305.148834 
	C205.032242,306.656433 206.077347,308.130585 207.669769,310.452667 
	C207.837341,308.187988 208.024445,306.818207 208.026779,305.448090 
	C208.049316,292.119659 207.996140,278.790894 208.084274,265.463013 
	C208.099426,263.171509 208.014587,260.438049 209.173080,258.712433 
	C210.479324,256.766663 213.162872,254.564987 215.203918,254.606598 
	C217.500992,254.653412 220.328369,256.636322 221.837524,258.609039 
	C223.061417,260.208862 222.952621,263.038666 222.961304,265.324707 
	C223.036621,285.150513 223.009537,304.976715 223.001541,324.802795 
	C222.999557,329.729889 223.031845,334.800415 217.172180,336.756348 
	C212.180328,338.422607 207.646530,336.446289 203.726990,330.575165 
	C194.024460,316.041595 184.531677,301.367981 174.941696,286.759155 
	C173.989975,285.309326 172.949036,283.918091 171.086929,281.275574 
	C171.086929,291.672729 171.086929,300.586334 171.086929,309.999878 
z"/>
<path fill="#FFFDFD" opacity="1.000000" stroke="none" 
	d="
M298.823120,333.968628 
	C296.141052,334.779419 293.762878,335.777466 291.373901,335.804077 
	C277.713074,335.956299 264.049530,335.912323 250.387161,335.864624 
	C241.677460,335.834198 239.075531,333.227722 239.057999,324.492737 
	C239.019226,305.165344 239.018356,285.837738 239.060699,266.510345 
	C239.078232,258.506622 241.554932,255.861160 249.390732,255.797913 
	C263.385437,255.684921 277.382019,255.706100 291.377106,255.790131 
	C296.870239,255.823105 299.373199,257.858276 299.438446,261.845032 
	C299.506561,266.002289 296.821716,268.089600 291.087860,268.112854 
	C279.431946,268.160126 267.775726,268.127014 255.681580,268.127014 
	C255.681580,274.706757 255.681580,281.058716 255.681580,287.918304 
	C263.425903,287.918304 271.046234,287.917938 278.666565,287.918457 
	C281.832275,287.918701 284.998749,287.875488 288.163483,287.931946 
	C293.771637,288.032013 296.185181,289.849670 296.223419,293.905426 
	C296.262207,298.017426 293.817505,300.015839 288.345825,300.057617 
	C279.182465,300.127563 270.018188,300.079926 260.854309,300.081696 
	C259.213104,300.082001 257.571869,300.081726 255.587250,300.081726 
	C255.587250,307.679993 255.587250,314.927002 255.587250,322.960175 
	C258.770294,322.960175 262.020813,322.959412 265.271332,322.960327 
	C274.601837,322.962921 283.934235,322.851013 293.262177,323.007446 
	C300.179901,323.123474 302.515839,327.564545 298.823120,333.968628 
z"/>
</svg>