<?xml version="1.0" standalone="no"?>
<!DOCTYPE svg PUBLIC "-//W3C//DTD SVG 20010904//EN"
 "http://www.w3.org/TR/2001/REC-SVG-20010904/DTD/svg10.dtd">
<svg version="1.0" xmlns="http://www.w3.org/2000/svg"
 width="25px" height="25px" viewBox="0 0 512.000000 512.000000"
 preserveAspectRatio="xMidYMid meet">

<g transform="translate(0.000000,512.000000) scale(0.100000,-0.100000)"
fill="#165A3C" stroke="none">
<path d="M1342 4675 c-81 -19 -210 -88 -274 -145 -110 -98 -183 -236 -208
-390 -14 -89 -14 -3071 0 -3160 17 -103 48 -186 102 -265 64 -96 143 -167 243
-216 142 -69 139 -69 716 -69 l516 0 -9 58 c-9 52 12 533 28 647 16 116 48
177 489 943 438 761 442 768 526 852 123 125 235 176 410 187 117 7 213 -12
318 -62 l72 -35 -3 568 c-3 501 -6 574 -21 627 -53 184 -177 333 -343 414
-130 63 -76 61 -1349 60 -910 -1 -1171 -3 -1213 -14z m1712 -847 c57 -17 119
-82 135 -141 27 -95 -13 -195 -97 -244 l-47 -28 -665 -3 c-482 -2 -680 0 -719
8 -74 16 -143 84 -160 156 -24 98 20 193 110 238 l53 26 674 0 c505 0 685 -3
716 -12z m-357 -853 c63 -19 126 -84 143 -146 26 -96 -23 -203 -113 -244 l-52
-25 -506 0 -505 0 -53 26 c-90 45 -134 140 -110 238 15 63 86 138 145 154 24
6 222 10 520 11 400 1 489 -2 531 -14z m-426 -868 c24 -13 58 -43 74 -66 27
-39 30 -50 30 -121 0 -71 -3 -82 -30 -121 -16 -23 -50 -53 -74 -66 -43 -23
-50 -23 -328 -23 -233 0 -290 3 -321 15 -167 71 -169 317 -2 389 28 12 88 15
321 16 280 0 287 0 330 -23z"/>
<path d="M3880 2690 c-45 -8 -89 -32 -116 -62 -20 -21 -813 -1387 -863 -1486
-19 -37 -23 -74 -38 -317 -18 -307 -16 -328 40 -392 61 -69 160 -92 242 -54
54 24 433 276 466 309 26 26 832 1413 870 1497 36 78 16 178 -47 237 -32 29
-403 246 -444 258 -45 15 -74 17 -110 10z"/>
</g>
</svg>
